<mxfile host="app.diagrams.net" modified="2021-01-09T10:23:14.163Z" agent="5.0 (Windows NT 10.0; Win64; x64) AppleWebKit/537.36 (KHTML, like Gecko) Chrome/78.0.3904.70 Safari/537.36" etag="QLSPFMGhAkv3j5L9AO-b" version="14.1.8" type="github">
  <diagram id="dEuHgJGwkF4dRK_tHgVA" name="第 1 页">
    <mxGraphModel dx="1038" dy="580" grid="1" gridSize="10" guides="1" tooltips="1" connect="1" arrows="1" fold="1" page="1" pageScale="1" pageWidth="827" pageHeight="1169" background="#DAD2D8" math="0" shadow="0">
      <root>
        <mxCell id="0" />
        <mxCell id="1" parent="0" />
        <mxCell id="3m4_TaizQ-aNQP2oJ50d-1" value="" style="rounded=0;whiteSpace=wrap;html=1;fillColor=#FAE5C7;strokeColor=#0F8B8D;fontColor=#143642;" vertex="1" parent="1">
          <mxGeometry x="10" y="20" width="770" height="670" as="geometry" />
        </mxCell>
        <mxCell id="3m4_TaizQ-aNQP2oJ50d-2" value="" style="rounded=0;whiteSpace=wrap;html=1;dashed=1;fillColor=#FAE5C7;strokeColor=#0F8B8D;fontColor=#143642;" vertex="1" parent="1">
          <mxGeometry x="30" y="30" width="730" height="130" as="geometry" />
        </mxCell>
        <mxCell id="3m4_TaizQ-aNQP2oJ50d-4" value="" style="rounded=0;whiteSpace=wrap;html=1;dashed=1;fillColor=#FAE5C7;strokeColor=#0F8B8D;fontColor=#143642;" vertex="1" parent="1">
          <mxGeometry x="30" y="216" width="300" height="460" as="geometry" />
        </mxCell>
        <mxCell id="3m4_TaizQ-aNQP2oJ50d-5" value="负载均衡(SLB)" style="rounded=0;whiteSpace=wrap;html=1;dashed=1;fontStyle=1;fontSize=14;fillColor=#FAE5C7;strokeColor=#0F8B8D;fontColor=#143642;" vertex="1" parent="1">
          <mxGeometry x="40" y="265" width="280" height="40" as="geometry" />
        </mxCell>
        <mxCell id="3m4_TaizQ-aNQP2oJ50d-6" value="" style="rounded=0;whiteSpace=wrap;html=1;dashed=1;fillColor=#FAE5C7;strokeColor=#0F8B8D;fontColor=#143642;" vertex="1" parent="1">
          <mxGeometry x="40" y="365" width="280" height="140" as="geometry" />
        </mxCell>
        <mxCell id="3m4_TaizQ-aNQP2oJ50d-7" value="A 服务" style="rounded=0;whiteSpace=wrap;html=1;fillColor=#FAE5C7;strokeColor=#0F8B8D;fontColor=#143642;" vertex="1" parent="1">
          <mxGeometry x="60" y="415.5" width="70" height="65" as="geometry" />
        </mxCell>
        <mxCell id="3m4_TaizQ-aNQP2oJ50d-8" value="B 服务" style="rounded=0;whiteSpace=wrap;html=1;fillColor=#FAE5C7;strokeColor=#0F8B8D;fontColor=#143642;" vertex="1" parent="1">
          <mxGeometry x="230" y="415.5" width="70" height="65" as="geometry" />
        </mxCell>
        <mxCell id="3m4_TaizQ-aNQP2oJ50d-13" value="" style="shape=flexArrow;endArrow=classic;startArrow=classic;html=1;entryX=0;entryY=0.5;entryDx=0;entryDy=0;labelBackgroundColor=#DAD2D8;strokeColor=#A8201A;fontColor=#143642;" edge="1" parent="1" target="3m4_TaizQ-aNQP2oJ50d-8">
          <mxGeometry width="50" height="50" relative="1" as="geometry">
            <mxPoint x="130" y="447.5" as="sourcePoint" />
            <mxPoint x="200" y="447.5" as="targetPoint" />
            <Array as="points">
              <mxPoint x="160" y="448" />
            </Array>
          </mxGeometry>
        </mxCell>
        <mxCell id="3m4_TaizQ-aNQP2oJ50d-14" value="HTTP/RPC" style="edgeLabel;html=1;align=center;verticalAlign=middle;resizable=0;points=[];labelBackgroundColor=#DAD2D8;fontColor=#143642;" vertex="1" connectable="0" parent="3m4_TaizQ-aNQP2oJ50d-13">
          <mxGeometry x="-0.124" y="-9" relative="1" as="geometry">
            <mxPoint x="6" y="16" as="offset" />
          </mxGeometry>
        </mxCell>
        <mxCell id="3m4_TaizQ-aNQP2oJ50d-15" value="" style="rounded=0;whiteSpace=wrap;html=1;dashed=1;fillColor=#FAE5C7;strokeColor=#0F8B8D;fontColor=#143642;" vertex="1" parent="1">
          <mxGeometry x="40" y="567" width="280" height="90" as="geometry" />
        </mxCell>
        <mxCell id="3m4_TaizQ-aNQP2oJ50d-16" value="Zookeeper" style="rounded=0;whiteSpace=wrap;html=1;fillColor=#FAE5C7;strokeColor=#0F8B8D;fontColor=#143642;" vertex="1" parent="1">
          <mxGeometry x="69" y="607" width="90" height="40" as="geometry" />
        </mxCell>
        <mxCell id="3m4_TaizQ-aNQP2oJ50d-17" value="Consul" style="rounded=0;whiteSpace=wrap;html=1;fillColor=#FAE5C7;strokeColor=#0F8B8D;fontColor=#143642;" vertex="1" parent="1">
          <mxGeometry x="201" y="607" width="90" height="40" as="geometry" />
        </mxCell>
        <mxCell id="3m4_TaizQ-aNQP2oJ50d-18" value="服务注册发现" style="text;html=1;strokeColor=none;fillColor=none;align=center;verticalAlign=middle;whiteSpace=wrap;rounded=0;dashed=1;fontStyle=1;fontSize=14;fontColor=#143642;" vertex="1" parent="1">
          <mxGeometry x="51" y="577" width="89" height="20" as="geometry" />
        </mxCell>
        <mxCell id="3m4_TaizQ-aNQP2oJ50d-21" value="中台服务/公共服务" style="text;html=1;strokeColor=none;fillColor=none;align=center;verticalAlign=middle;whiteSpace=wrap;rounded=0;dashed=1;fontSize=14;fontStyle=1;fontColor=#143642;" vertex="1" parent="1">
          <mxGeometry x="51" y="375" width="126" height="20" as="geometry" />
        </mxCell>
        <mxCell id="3m4_TaizQ-aNQP2oJ50d-23" value="" style="shape=flexArrow;endArrow=classic;startArrow=classic;html=1;fontSize=14;width=13;endSize=6.52;startSize=4.53;exitX=0.5;exitY=0;exitDx=0;exitDy=0;labelBackgroundColor=#DAD2D8;strokeColor=#A8201A;fontColor=#143642;" edge="1" parent="1" source="3m4_TaizQ-aNQP2oJ50d-6">
          <mxGeometry width="50" height="50" relative="1" as="geometry">
            <mxPoint x="179.5" y="355" as="sourcePoint" />
            <mxPoint x="179.5" y="305" as="targetPoint" />
          </mxGeometry>
        </mxCell>
        <mxCell id="3m4_TaizQ-aNQP2oJ50d-24" value="" style="shape=flexArrow;endArrow=classic;startArrow=classic;html=1;fontSize=14;labelBackgroundColor=#DAD2D8;strokeColor=#A8201A;fontColor=#143642;" edge="1" parent="1">
          <mxGeometry width="50" height="50" relative="1" as="geometry">
            <mxPoint x="177" y="566" as="sourcePoint" />
            <mxPoint x="177" y="506" as="targetPoint" />
          </mxGeometry>
        </mxCell>
        <mxCell id="3m4_TaizQ-aNQP2oJ50d-26" value="" style="rounded=0;whiteSpace=wrap;html=1;dashed=1;fillColor=#FAE5C7;strokeColor=#0F8B8D;fontColor=#143642;" vertex="1" parent="1">
          <mxGeometry x="460" y="216" width="300" height="460" as="geometry" />
        </mxCell>
        <mxCell id="3m4_TaizQ-aNQP2oJ50d-27" value="负载均衡(SLB)" style="rounded=0;whiteSpace=wrap;html=1;dashed=1;fontStyle=1;fontSize=14;fillColor=#FAE5C7;strokeColor=#0F8B8D;fontColor=#143642;" vertex="1" parent="1">
          <mxGeometry x="470" y="265" width="280" height="40" as="geometry" />
        </mxCell>
        <mxCell id="3m4_TaizQ-aNQP2oJ50d-28" value="" style="rounded=0;whiteSpace=wrap;html=1;dashed=1;fillColor=#FAE5C7;strokeColor=#0F8B8D;fontColor=#143642;" vertex="1" parent="1">
          <mxGeometry x="470" y="365" width="280" height="140" as="geometry" />
        </mxCell>
        <mxCell id="3m4_TaizQ-aNQP2oJ50d-29" value="A 服务" style="rounded=0;whiteSpace=wrap;html=1;fillColor=#FAE5C7;strokeColor=#0F8B8D;fontColor=#143642;" vertex="1" parent="1">
          <mxGeometry x="490" y="415.5" width="70" height="65" as="geometry" />
        </mxCell>
        <mxCell id="3m4_TaizQ-aNQP2oJ50d-30" value="B 服务" style="rounded=0;whiteSpace=wrap;html=1;fillColor=#FAE5C7;strokeColor=#0F8B8D;fontColor=#143642;" vertex="1" parent="1">
          <mxGeometry x="660" y="415.5" width="70" height="65" as="geometry" />
        </mxCell>
        <mxCell id="3m4_TaizQ-aNQP2oJ50d-31" value="" style="shape=flexArrow;endArrow=classic;startArrow=classic;html=1;entryX=0;entryY=0.5;entryDx=0;entryDy=0;labelBackgroundColor=#DAD2D8;strokeColor=#A8201A;fontColor=#143642;" edge="1" parent="1" target="3m4_TaizQ-aNQP2oJ50d-30">
          <mxGeometry width="50" height="50" relative="1" as="geometry">
            <mxPoint x="560" y="447.5" as="sourcePoint" />
            <mxPoint x="630" y="447.5" as="targetPoint" />
            <Array as="points">
              <mxPoint x="590" y="448" />
            </Array>
          </mxGeometry>
        </mxCell>
        <mxCell id="3m4_TaizQ-aNQP2oJ50d-32" value="HTTP/RPC" style="edgeLabel;html=1;align=center;verticalAlign=middle;resizable=0;points=[];labelBackgroundColor=#DAD2D8;fontColor=#143642;" vertex="1" connectable="0" parent="3m4_TaizQ-aNQP2oJ50d-31">
          <mxGeometry x="-0.124" y="-9" relative="1" as="geometry">
            <mxPoint x="6" y="16" as="offset" />
          </mxGeometry>
        </mxCell>
        <mxCell id="3m4_TaizQ-aNQP2oJ50d-33" value="" style="rounded=0;whiteSpace=wrap;html=1;dashed=1;fillColor=#FAE5C7;strokeColor=#0F8B8D;fontColor=#143642;" vertex="1" parent="1">
          <mxGeometry x="470" y="567" width="280" height="90" as="geometry" />
        </mxCell>
        <mxCell id="3m4_TaizQ-aNQP2oJ50d-34" value="Zookeeper" style="rounded=0;whiteSpace=wrap;html=1;dashed=1;fillColor=#FAE5C7;strokeColor=#0F8B8D;fontColor=#143642;" vertex="1" parent="1">
          <mxGeometry x="499" y="607" width="90" height="40" as="geometry" />
        </mxCell>
        <mxCell id="3m4_TaizQ-aNQP2oJ50d-35" value="Consul" style="rounded=0;whiteSpace=wrap;html=1;fillColor=#FAE5C7;strokeColor=#0F8B8D;fontColor=#143642;" vertex="1" parent="1">
          <mxGeometry x="631" y="607" width="90" height="40" as="geometry" />
        </mxCell>
        <mxCell id="3m4_TaizQ-aNQP2oJ50d-36" value="服务注册发现" style="text;html=1;strokeColor=none;fillColor=none;align=center;verticalAlign=middle;whiteSpace=wrap;rounded=0;dashed=1;fontStyle=1;fontSize=14;fontColor=#143642;" vertex="1" parent="1">
          <mxGeometry x="481" y="577" width="89" height="20" as="geometry" />
        </mxCell>
        <mxCell id="3m4_TaizQ-aNQP2oJ50d-37" value="中台服务/公共服务" style="text;html=1;strokeColor=none;fillColor=none;align=center;verticalAlign=middle;whiteSpace=wrap;rounded=0;dashed=1;fontSize=14;fontStyle=1;fontColor=#143642;" vertex="1" parent="1">
          <mxGeometry x="481" y="375" width="126" height="20" as="geometry" />
        </mxCell>
        <mxCell id="3m4_TaizQ-aNQP2oJ50d-38" value="" style="shape=flexArrow;endArrow=classic;startArrow=classic;html=1;fontSize=14;width=13;endSize=6.52;startSize=4.53;exitX=0.5;exitY=0;exitDx=0;exitDy=0;labelBackgroundColor=#DAD2D8;strokeColor=#A8201A;fontColor=#143642;" edge="1" parent="1" source="3m4_TaizQ-aNQP2oJ50d-28">
          <mxGeometry width="50" height="50" relative="1" as="geometry">
            <mxPoint x="609.5" y="355" as="sourcePoint" />
            <mxPoint x="609.5" y="305" as="targetPoint" />
          </mxGeometry>
        </mxCell>
        <mxCell id="3m4_TaizQ-aNQP2oJ50d-39" value="" style="shape=flexArrow;endArrow=classic;startArrow=classic;html=1;fontSize=14;labelBackgroundColor=#DAD2D8;strokeColor=#A8201A;fontColor=#143642;" edge="1" parent="1">
          <mxGeometry width="50" height="50" relative="1" as="geometry">
            <mxPoint x="607" y="566" as="sourcePoint" />
            <mxPoint x="607" y="506" as="targetPoint" />
          </mxGeometry>
        </mxCell>
        <mxCell id="3m4_TaizQ-aNQP2oJ50d-41" value="" style="shape=flexArrow;endArrow=classic;startArrow=classic;html=1;fontSize=14;entryX=0;entryY=0.5;entryDx=0;entryDy=0;labelBackgroundColor=#DAD2D8;strokeColor=#A8201A;fontColor=#143642;" edge="1" parent="1" target="3m4_TaizQ-aNQP2oJ50d-27">
          <mxGeometry width="50" height="50" relative="1" as="geometry">
            <mxPoint x="320" y="284.5" as="sourcePoint" />
            <mxPoint x="390" y="284.5" as="targetPoint" />
          </mxGeometry>
        </mxCell>
        <mxCell id="3m4_TaizQ-aNQP2oJ50d-42" value="" style="shape=flexArrow;endArrow=classic;startArrow=classic;html=1;fontSize=14;exitX=0.5;exitY=0;exitDx=0;exitDy=0;labelBackgroundColor=#DAD2D8;strokeColor=#A8201A;fontColor=#143642;" edge="1" parent="1" source="3m4_TaizQ-aNQP2oJ50d-5">
          <mxGeometry width="50" height="50" relative="1" as="geometry">
            <mxPoint x="177" y="200" as="sourcePoint" />
            <mxPoint x="180" y="160" as="targetPoint" />
          </mxGeometry>
        </mxCell>
        <mxCell id="3m4_TaizQ-aNQP2oJ50d-43" value="" style="shape=flexArrow;endArrow=classic;startArrow=classic;html=1;fontSize=14;labelBackgroundColor=#DAD2D8;strokeColor=#A8201A;fontColor=#143642;" edge="1" parent="1" source="3m4_TaizQ-aNQP2oJ50d-27">
          <mxGeometry width="50" height="50" relative="1" as="geometry">
            <mxPoint x="619" y="238" as="sourcePoint" />
            <mxPoint x="611" y="160" as="targetPoint" />
          </mxGeometry>
        </mxCell>
        <mxCell id="3m4_TaizQ-aNQP2oJ50d-44" value="API服务 A" style="rounded=0;whiteSpace=wrap;html=1;fontSize=14;fillColor=#FAE5C7;strokeColor=#0F8B8D;fontColor=#143642;" vertex="1" parent="1">
          <mxGeometry x="51" y="76" width="120" height="60" as="geometry" />
        </mxCell>
        <mxCell id="3m4_TaizQ-aNQP2oJ50d-45" value="API服务 B" style="rounded=0;whiteSpace=wrap;html=1;fontSize=14;fillColor=#FAE5C7;strokeColor=#0F8B8D;fontColor=#143642;" vertex="1" parent="1">
          <mxGeometry x="240" y="76" width="120" height="60" as="geometry" />
        </mxCell>
        <mxCell id="3m4_TaizQ-aNQP2oJ50d-46" value="API服务 C" style="rounded=0;whiteSpace=wrap;html=1;fontSize=14;fillColor=#FAE5C7;strokeColor=#0F8B8D;fontColor=#143642;" vertex="1" parent="1">
          <mxGeometry x="440" y="76" width="120" height="60" as="geometry" />
        </mxCell>
        <mxCell id="3m4_TaizQ-aNQP2oJ50d-47" value="API服务 D" style="rounded=0;whiteSpace=wrap;html=1;fontSize=14;fillColor=#FAE5C7;strokeColor=#0F8B8D;fontColor=#143642;" vertex="1" parent="1">
          <mxGeometry x="607" y="76" width="120" height="60" as="geometry" />
        </mxCell>
        <mxCell id="3m4_TaizQ-aNQP2oJ50d-48" value="中心网关-BU-A" style="text;html=1;strokeColor=none;fillColor=none;align=center;verticalAlign=middle;whiteSpace=wrap;rounded=0;dashed=1;fontSize=14;fontStyle=1;fontColor=#143642;" vertex="1" parent="1">
          <mxGeometry x="40" y="226" width="110" height="20" as="geometry" />
        </mxCell>
        <mxCell id="3m4_TaizQ-aNQP2oJ50d-49" value="中心网关-BU-B" style="text;html=1;strokeColor=none;fillColor=none;align=center;verticalAlign=middle;whiteSpace=wrap;rounded=0;dashed=1;fontSize=14;fontStyle=1;fontColor=#143642;" vertex="1" parent="1">
          <mxGeometry x="470" y="226" width="110" height="20" as="geometry" />
        </mxCell>
        <mxCell id="3m4_TaizQ-aNQP2oJ50d-50" value="API服务(小前台)" style="text;html=1;strokeColor=none;fillColor=none;align=center;verticalAlign=middle;whiteSpace=wrap;rounded=0;dashed=1;fontSize=14;fontStyle=1;fontColor=#143642;" vertex="1" parent="1">
          <mxGeometry x="49" y="40" width="110" height="20" as="geometry" />
        </mxCell>
        <mxCell id="3m4_TaizQ-aNQP2oJ50d-51" value="Zookeeper" style="rounded=0;whiteSpace=wrap;html=1;fillColor=#FAE5C7;strokeColor=#0F8B8D;fontColor=#143642;" vertex="1" parent="1">
          <mxGeometry x="499" y="607" width="90" height="40" as="geometry" />
        </mxCell>
      </root>
    </mxGraphModel>
  </diagram>
</mxfile>
